<?xml version="1.0" encoding="utf-8"?>
<!-- Generator: Adobe Illustrator 24.3.0, SVG Export Plug-In . SVG Version: 6.00 Build 0)  -->
<svg version="1.1" id="Layer_1" xmlns="http://www.w3.org/2000/svg" xmlns:xlink="http://www.w3.org/1999/xlink" x="0px" y="0px"
	 viewBox="0 0 400 400" style="enable-background:new 0 0 400 400;" xml:space="preserve">
<style type="text/css">
	.st0{fill:url(#SVGID_1_);}
	.st1{fill:url(#SVGID_2_);}
	.st2{fill:url(#SVGID_3_);}
	.st3{fill:url(#SVGID_4_);}
	.st4{fill:url(#SVGID_5_);}
	.st5{fill:url(#SVGID_6_);}
	.st6{fill:url(#SVGID_7_);}
	.st7{fill:url(#SVGID_8_);}
	.st8{fill:url(#SVGID_9_);}
	.st9{fill:url(#SVGID_10_);}
	.st10{fill:url(#SVGID_11_);}
	.st11{fill:url(#SVGID_12_);}
	.st12{fill:url(#SVGID_13_);}
	.st13{fill:url(#SVGID_14_);}
	.st14{fill:url(#SVGID_15_);}
</style>
<g>
	<linearGradient id="SVGID_1_" gradientUnits="userSpaceOnUse" x1="338.2966" y1="319.9642" x2="30.0305" y2="137.6238">
		<stop  offset="2.237672e-07" style="stop-color:#636862"/>
		<stop  offset="0.1007" style="stop-color:#777F75"/>
		<stop  offset="0.326" style="stop-color:#A1AD9D"/>
		<stop  offset="0.4994" style="stop-color:#BACAB5"/>
		<stop  offset="0.5987" style="stop-color:#C4D5BE"/>
		<stop  offset="1" style="stop-color:#CAD5C8"/>
	</linearGradient>
	<path class="st0" d="M66.58,142.42c-0.97-0.9-2.02-1.64-3.17-2.22c-1.15-0.57-2.32-0.86-3.53-0.86c-1.09,0-2.05,0.38-2.9,1.13
		c-0.85,0.75-1.27,1.64-1.27,2.67c0,1.15,0.5,2.05,1.49,2.71c1,0.66,2.58,1.42,4.75,2.26c1.39,0.54,2.35,0.94,2.9,1.18
		c2.77,1.21,4.99,2.76,6.65,4.66c1.66,1.9,2.49,4.6,2.49,8.1c0,4.76-1.67,8.58-5.02,11.44s-7.43,4.3-12.26,4.3
		c-3.02,0-5.9-0.65-8.64-1.94c-2.75-1.3-5.08-3.12-7.01-5.47l5.79-7.51c1.39,1.51,2.88,2.75,4.48,3.71c1.6,0.97,3.24,1.45,4.93,1.45
		c1.45,0,2.65-0.45,3.62-1.36c0.96-0.9,1.45-2.05,1.45-3.44c0-1.45-0.53-2.55-1.58-3.3c-1.06-0.75-2.73-1.58-5.02-2.49
		c-1.03-0.36-1.78-0.66-2.26-0.9c-2.77-1.21-4.95-2.65-6.51-4.34c-1.57-1.69-2.35-4.13-2.35-7.33c0-4.16,1.31-7.6,3.94-10.31
		s6.02-4.07,10.18-4.07c2.53,0,5.13,0.39,7.78,1.18c2.65,0.78,4.82,1.93,6.51,3.44L66.58,142.42z"/>
	<linearGradient id="SVGID_2_" gradientUnits="userSpaceOnUse" x1="352.9547" y1="295.1831" x2="44.6886" y2="112.8427">
		<stop  offset="2.237672e-07" style="stop-color:#636862"/>
		<stop  offset="0.1007" style="stop-color:#777F75"/>
		<stop  offset="0.326" style="stop-color:#A1AD9D"/>
		<stop  offset="0.4994" style="stop-color:#BACAB5"/>
		<stop  offset="0.5987" style="stop-color:#C4D5BE"/>
		<stop  offset="1" style="stop-color:#CAD5C8"/>
	</linearGradient>
	<path class="st1" d="M93.54,99.63v36.01h0.18c1.27-1.75,2.91-3.04,4.93-3.89c2.02-0.84,4.24-1.27,6.65-1.27
		c2.9,0,5.34,0.47,7.33,1.4c1.99,0.94,3.57,2.26,4.75,3.98c1.18,1.72,2.02,3.7,2.53,5.93c0.51,2.23,0.77,4.7,0.77,7.42v27.14h-12.67
		v-23.52c0-1.93-0.06-3.57-0.18-4.93c-0.12-1.36-0.39-2.59-0.81-3.71c-0.42-1.12-1.12-1.99-2.08-2.62c-0.97-0.63-2.23-0.95-3.8-0.95
		c-1.75,0-3.15,0.44-4.21,1.31c-1.06,0.88-1.82,1.99-2.31,3.35c-0.48,1.36-0.78,2.76-0.9,4.21c-0.12,1.45-0.18,3.08-0.18,4.89v21.98
		H80.87V99.63H93.54z"/>
	<linearGradient id="SVGID_3_" gradientUnits="userSpaceOnUse" x1="362.1512" y1="279.6354" x2="53.8851" y2="97.295">
		<stop  offset="2.237672e-07" style="stop-color:#636862"/>
		<stop  offset="0.1007" style="stop-color:#777F75"/>
		<stop  offset="0.326" style="stop-color:#A1AD9D"/>
		<stop  offset="0.4994" style="stop-color:#BACAB5"/>
		<stop  offset="0.5987" style="stop-color:#C4D5BE"/>
		<stop  offset="1" style="stop-color:#CAD5C8"/>
	</linearGradient>
	<path class="st2" d="M159.44,132.2c2.86,1.15,5.34,2.79,7.42,4.93c2.08,2.14,3.68,4.66,4.79,7.55c1.12,2.9,1.67,6.06,1.67,9.5
		c0,3.44-0.56,6.59-1.67,9.45c-1.12,2.87-2.7,5.37-4.75,7.51c-2.05,2.14-4.52,3.79-7.42,4.93s-6.06,1.72-9.5,1.72
		c-3.44,0-6.59-0.57-9.45-1.72c-2.87-1.15-5.34-2.79-7.42-4.93c-2.08-2.14-3.68-4.64-4.79-7.51c-1.12-2.86-1.67-6.02-1.67-9.45
		c0-3.44,0.56-6.6,1.67-9.5c1.12-2.9,2.71-5.41,4.79-7.55c2.08-2.14,4.55-3.78,7.42-4.93c2.86-1.15,6.02-1.72,9.45-1.72
		C153.43,130.48,156.58,131.06,159.44,132.2z M142.44,145.5c-1.96,2.53-2.94,5.43-2.94,8.69c0,3.2,0.98,6.06,2.94,8.59
		c1.96,2.53,4.48,3.8,7.55,3.8c3.08,0,5.59-1.27,7.55-3.8c1.96-2.53,2.94-5.4,2.94-8.59c0-3.26-0.97-6.15-2.9-8.69
		c-1.93-2.53-4.46-3.8-7.6-3.8C146.91,141.7,144.39,142.97,142.44,145.5z"/>
	<linearGradient id="SVGID_4_" gradientUnits="userSpaceOnUse" x1="376.1346" y1="255.9951" x2="67.8684" y2="73.6547">
		<stop  offset="2.237672e-07" style="stop-color:#636862"/>
		<stop  offset="0.1007" style="stop-color:#777F75"/>
		<stop  offset="0.326" style="stop-color:#A1AD9D"/>
		<stop  offset="0.4994" style="stop-color:#BACAB5"/>
		<stop  offset="0.5987" style="stop-color:#C4D5BE"/>
		<stop  offset="1" style="stop-color:#CAD5C8"/>
	</linearGradient>
	<path class="st3" d="M191.69,131.93v24.06c0,1.51,0.09,2.88,0.27,4.12c0.18,1.24,0.51,2.38,1,3.44c0.48,1.06,1.22,1.92,2.22,2.58
		c1,0.66,2.25,1,3.75,1c1.51,0,2.76-0.33,3.75-1c1-0.66,1.73-1.52,2.22-2.58c0.48-1.05,0.81-2.2,1-3.44
		c0.18-1.24,0.27-2.61,0.27-4.12v-24.06h12.66v26.14c0,13.15-6.63,19.72-19.9,19.72c-13.27,0-19.9-6.57-19.9-19.72v-26.14H191.69z"
		/>
	<linearGradient id="SVGID_5_" gradientUnits="userSpaceOnUse" x1="389.2697" y1="233.7888" x2="81.0036" y2="51.4484">
		<stop  offset="2.237672e-07" style="stop-color:#636862"/>
		<stop  offset="0.1007" style="stop-color:#777F75"/>
		<stop  offset="0.326" style="stop-color:#A1AD9D"/>
		<stop  offset="0.4994" style="stop-color:#BACAB5"/>
		<stop  offset="0.5987" style="stop-color:#C4D5BE"/>
		<stop  offset="1" style="stop-color:#CAD5C8"/>
	</linearGradient>
	<path class="st4" d="M245.88,156.99l9.14-25.06h13.84l-20.45,45.32h-6.51l-20.35-45.32h13.93L245.88,156.99z"/>
	<linearGradient id="SVGID_6_" gradientUnits="userSpaceOnUse" x1="400.7144" y1="214.4402" x2="92.4483" y2="32.0998">
		<stop  offset="2.237672e-07" style="stop-color:#636862"/>
		<stop  offset="0.1007" style="stop-color:#777F75"/>
		<stop  offset="0.326" style="stop-color:#A1AD9D"/>
		<stop  offset="0.4994" style="stop-color:#BACAB5"/>
		<stop  offset="0.5987" style="stop-color:#C4D5BE"/>
		<stop  offset="1" style="stop-color:#CAD5C8"/>
	</linearGradient>
	<path class="st5" d="M284.1,108c1.48,1.48,2.22,3.24,2.22,5.29c0,2.11-0.72,3.89-2.17,5.34c-1.45,1.45-3.23,2.17-5.34,2.17
		c-2.11,0-3.89-0.72-5.34-2.17c-1.45-1.45-2.17-3.23-2.17-5.34c0-2.05,0.74-3.81,2.22-5.29c1.48-1.48,3.24-2.22,5.29-2.22
		C280.86,105.79,282.62,106.53,284.1,108z M285.14,176.35h-12.67v-44.42h12.67V176.35z"/>
	<linearGradient id="SVGID_7_" gradientUnits="userSpaceOnUse" x1="408.3848" y1="201.4726" x2="100.1187" y2="19.1322">
		<stop  offset="2.237672e-07" style="stop-color:#636862"/>
		<stop  offset="0.1007" style="stop-color:#777F75"/>
		<stop  offset="0.326" style="stop-color:#A1AD9D"/>
		<stop  offset="0.4994" style="stop-color:#BACAB5"/>
		<stop  offset="0.5987" style="stop-color:#C4D5BE"/>
		<stop  offset="1" style="stop-color:#CAD5C8"/>
	</linearGradient>
	<path class="st6" d="M307.4,148.21h0.18l13.3-16.28h16.46l-18.73,19.54l20.17,24.88h-16.65l-14.57-18.91h-0.18v18.91h-12.67V99.63
		h12.67V148.21z"/>
	<linearGradient id="SVGID_8_" gradientUnits="userSpaceOnUse" x1="306.1499" y1="374.3118" x2="-2.1163" y2="191.9714">
		<stop  offset="2.237672e-07" style="stop-color:#636862"/>
		<stop  offset="0.1007" style="stop-color:#777F75"/>
		<stop  offset="0.326" style="stop-color:#A1AD9D"/>
		<stop  offset="0.4994" style="stop-color:#BACAB5"/>
		<stop  offset="0.5987" style="stop-color:#C4D5BE"/>
		<stop  offset="1" style="stop-color:#CAD5C8"/>
	</linearGradient>
	<path class="st7" d="M56.9,264.31H44.24v-33.74h-4.25v-10.67h4.25v-13.03c0-2.83,0.32-5.47,0.95-7.92c0.63-2.44,1.61-4.6,2.94-6.47
		c1.33-1.87,3.06-3.33,5.2-4.39c2.14-1.05,4.69-1.58,7.64-1.58c2.23,0,4.25,0.48,6.06,1.45v11.31c-2.05-1.03-3.77-1.54-5.16-1.54
		c-2.11,0-3.47,0.9-4.07,2.71c-0.6,1.81-0.9,4.55-0.9,8.23v11.22h10.13v10.67H56.9V264.31z"/>
	<linearGradient id="SVGID_9_" gradientUnits="userSpaceOnUse" x1="308.4381" y1="370.4432" x2="0.172" y2="188.1028">
		<stop  offset="2.237672e-07" style="stop-color:#636862"/>
		<stop  offset="0.1007" style="stop-color:#777F75"/>
		<stop  offset="0.326" style="stop-color:#A1AD9D"/>
		<stop  offset="0.4994" style="stop-color:#BACAB5"/>
		<stop  offset="0.5987" style="stop-color:#C4D5BE"/>
		<stop  offset="1" style="stop-color:#CAD5C8"/>
	</linearGradient>
	<path class="st8" d="M100.91,220.16c2.86,1.15,5.34,2.79,7.42,4.93c2.08,2.14,3.68,4.66,4.79,7.55c1.12,2.89,1.67,6.06,1.67,9.5
		s-0.56,6.59-1.67,9.45c-1.12,2.87-2.7,5.37-4.75,7.51c-2.05,2.14-4.52,3.79-7.42,4.93c-2.9,1.15-6.06,1.72-9.5,1.72
		c-3.44,0-6.59-0.57-9.45-1.72c-2.87-1.14-5.34-2.79-7.42-4.93c-2.08-2.14-3.68-4.64-4.79-7.51c-1.12-2.86-1.67-6.02-1.67-9.45
		s0.56-6.6,1.67-9.5c1.12-2.9,2.71-5.41,4.79-7.55c2.08-2.14,4.55-3.78,7.42-4.93c2.86-1.15,6.02-1.72,9.45-1.72
		C94.9,218.44,98.05,219.01,100.91,220.16z M83.9,233.46c-1.96,2.53-2.94,5.43-2.94,8.68c0,3.2,0.98,6.06,2.94,8.59
		c1.96,2.53,4.48,3.8,7.55,3.8c3.08,0,5.59-1.27,7.55-3.8c1.96-2.53,2.94-5.4,2.94-8.59c0-3.26-0.97-6.15-2.9-8.68
		c-1.93-2.53-4.46-3.8-7.6-3.8C88.38,229.66,85.86,230.93,83.9,233.46z"/>
	<linearGradient id="SVGID_10_" gradientUnits="userSpaceOnUse" x1="322.4216" y1="346.8027" x2="14.1555" y2="164.4622">
		<stop  offset="2.237672e-07" style="stop-color:#636862"/>
		<stop  offset="0.1007" style="stop-color:#777F75"/>
		<stop  offset="0.326" style="stop-color:#A1AD9D"/>
		<stop  offset="0.4994" style="stop-color:#BACAB5"/>
		<stop  offset="0.5987" style="stop-color:#C4D5BE"/>
		<stop  offset="1" style="stop-color:#CAD5C8"/>
	</linearGradient>
	<path class="st9" d="M133.16,219.89v24.06c0,1.51,0.09,2.88,0.27,4.12c0.18,1.24,0.51,2.38,1,3.44c0.48,1.06,1.22,1.92,2.22,2.58
		c1,0.66,2.25,1,3.75,1c1.51,0,2.76-0.33,3.75-1c1-0.66,1.73-1.52,2.22-2.58c0.48-1.05,0.81-2.2,1-3.44
		c0.18-1.24,0.27-2.61,0.27-4.12v-24.06h12.67v26.14c0,13.15-6.64,19.72-19.9,19.72c-13.27,0-19.9-6.57-19.9-19.72v-26.14H133.16z"
		/>
	<linearGradient id="SVGID_11_" gradientUnits="userSpaceOnUse" x1="333.0351" y1="328.8595" x2="24.7689" y2="146.519">
		<stop  offset="2.237672e-07" style="stop-color:#636862"/>
		<stop  offset="0.1007" style="stop-color:#777F75"/>
		<stop  offset="0.326" style="stop-color:#A1AD9D"/>
		<stop  offset="0.4994" style="stop-color:#BACAB5"/>
		<stop  offset="0.5987" style="stop-color:#C4D5BE"/>
		<stop  offset="1" style="stop-color:#CAD5C8"/>
	</linearGradient>
	<path class="st10" d="M206.71,253.63v10.67h-42.16l22.71-33.74h-19.18v-10.67h40.08l-22.53,33.74H206.71z"/>
	<linearGradient id="SVGID_12_" gradientUnits="userSpaceOnUse" x1="353.6151" y1="294.0667" x2="45.349" y2="111.7263">
		<stop  offset="2.237672e-07" style="stop-color:#636862"/>
		<stop  offset="0.1007" style="stop-color:#777F75"/>
		<stop  offset="0.326" style="stop-color:#A1AD9D"/>
		<stop  offset="0.4994" style="stop-color:#BACAB5"/>
		<stop  offset="0.5987" style="stop-color:#C4D5BE"/>
		<stop  offset="1" style="stop-color:#CAD5C8"/>
	</linearGradient>
	<path class="st11" d="M242.08,260.15h-0.18c-1.27,1.75-2.99,3.12-5.16,4.12c-2.17,1-4.43,1.49-6.78,1.49
		c-3.14,0-5.99-0.65-8.55-1.95c-2.56-1.3-4.74-3.09-6.51-5.38c-1.78-2.29-3.12-4.87-4.03-7.74c-0.9-2.86-1.36-5.8-1.36-8.82
		c0-2.95,0.47-5.83,1.4-8.64c0.93-2.8,2.28-5.32,4.03-7.55c1.75-2.23,3.89-4,6.42-5.29c2.53-1.3,5.34-1.94,8.41-1.94
		c2.35,0,4.61,0.48,6.79,1.45c2.17,0.97,3.95,2.32,5.34,4.07h0.18v-36.37h12.67v76.72h-12.67V260.15z M240.41,250.69
		c1.96-2.56,2.94-5.44,2.94-8.64c0-3.2-0.98-6.06-2.94-8.59c-1.96-2.53-4.48-3.8-7.55-3.8s-5.59,1.27-7.55,3.8
		c-1.96,2.53-2.94,5.4-2.94,8.59c0,3.2,0.98,6.08,2.94,8.64c1.96,2.56,4.48,3.84,7.55,3.84S238.45,253.26,240.41,250.69z"/>
	<linearGradient id="SVGID_13_" gradientUnits="userSpaceOnUse" x1="357.8978" y1="286.8264" x2="49.6316" y2="104.486">
		<stop  offset="2.237672e-07" style="stop-color:#636862"/>
		<stop  offset="0.1007" style="stop-color:#777F75"/>
		<stop  offset="0.326" style="stop-color:#A1AD9D"/>
		<stop  offset="0.4994" style="stop-color:#BACAB5"/>
		<stop  offset="0.5987" style="stop-color:#C4D5BE"/>
		<stop  offset="1" style="stop-color:#CAD5C8"/>
	</linearGradient>
	<path class="st12" d="M274.01,244.13c0,1.51,0.15,2.96,0.45,4.34c0.3,1.39,0.8,2.66,1.49,3.8c0.69,1.15,1.61,2.07,2.76,2.76
		c1.15,0.69,2.5,1.04,4.07,1.04c1.99,0,3.68-0.54,5.07-1.63c1.39-1.09,2.53-2.56,3.44-4.43l11.67,1.9
		c-1.51,4.34-4.07,7.73-7.69,10.18c-3.62,2.44-7.78,3.66-12.48,3.66c-6.76,0-12.14-2.16-16.15-6.47c-4.01-4.31-6.02-9.91-6.02-16.78
		c0-7.06,1.85-12.83,5.56-17.32c3.71-4.49,9.03-6.74,15.97-6.74c3.56,0,6.68,0.62,9.36,1.85c2.68,1.24,4.89,2.94,6.6,5.11
		s3,4.72,3.84,7.64c0.84,2.93,1.27,6.11,1.27,9.54v1.54H274.01z M291.29,236.26c-0.36-2.47-1.28-4.58-2.76-6.33
		c-1.48-1.75-3.36-2.62-5.65-2.62c-2.41,0-4.34,0.86-5.79,2.58c-1.45,1.72-2.35,3.85-2.71,6.38H291.29z"/>
	<linearGradient id="SVGID_14_" gradientUnits="userSpaceOnUse" x1="368.7078" y1="268.551" x2="60.4416" y2="86.2105">
		<stop  offset="2.237672e-07" style="stop-color:#636862"/>
		<stop  offset="0.1007" style="stop-color:#777F75"/>
		<stop  offset="0.326" style="stop-color:#A1AD9D"/>
		<stop  offset="0.4994" style="stop-color:#BACAB5"/>
		<stop  offset="0.5987" style="stop-color:#C4D5BE"/>
		<stop  offset="1" style="stop-color:#CAD5C8"/>
	</linearGradient>
	<path class="st13" d="M321.78,224.5h0.18c2.65-4.04,6.33-6.06,11.04-6.06c1.63,0,3.38,0.36,5.25,1.08l-1.54,11.76
		c-1.51-1.08-3.26-1.63-5.25-1.63c-2.05,0-3.74,0.41-5.07,1.22c-1.33,0.81-2.32,1.92-2.99,3.3c-0.67,1.39-1.1,2.91-1.31,4.57
		c-0.21,1.66-0.32,3.51-0.32,5.56v19.99h-12.67v-44.42h12.67V224.5z"/>
	<linearGradient id="SVGID_15_" gradientUnits="userSpaceOnUse" x1="366.3536" y1="272.5308" x2="58.0875" y2="90.1904">
		<stop  offset="2.237672e-07" style="stop-color:#636862"/>
		<stop  offset="0.1007" style="stop-color:#777F75"/>
		<stop  offset="0.326" style="stop-color:#A1AD9D"/>
		<stop  offset="0.4994" style="stop-color:#BACAB5"/>
		<stop  offset="0.5987" style="stop-color:#C4D5BE"/>
		<stop  offset="1" style="stop-color:#CAD5C8"/>
	</linearGradient>
	<path class="st14" d="M347.56,252.32c1.57,1.54,2.35,3.42,2.35,5.65c0,2.23-0.78,4.15-2.35,5.75c-1.57,1.6-3.47,2.4-5.7,2.4
		s-4.13-0.8-5.7-2.4c-1.57-1.6-2.35-3.51-2.35-5.75c0-2.23,0.78-4.12,2.35-5.65c1.57-1.54,3.47-2.31,5.7-2.31
		S345.99,250.78,347.56,252.32z"/>
</g>
</svg>
